<?xml version="1.0" encoding="UTF-8" standalone="no"?>
<!-- Created with Inkscape (http://www.inkscape.org/) -->

<svg
   width="1920"
   height="1080"
   viewBox="0 0 507.99999 285.75"
   version="1.1"
   id="svg1"
   inkscape:version="1.3.2 (091e20ef0f, 2023-11-25)"
   sodipodi:docname="hypr95.svg"
   inkscape:export-filename="hypr95.png"
   inkscape:export-xdpi="192"
   inkscape:export-ydpi="192"
   xmlns:inkscape="http://www.inkscape.org/namespaces/inkscape"
   xmlns:sodipodi="http://sodipodi.sourceforge.net/DTD/sodipodi-0.dtd"
   xmlns="http://www.w3.org/2000/svg"
   xmlns:svg="http://www.w3.org/2000/svg">
  <sodipodi:namedview
     id="namedview1"
     pagecolor="#292217"
     bordercolor="#000000"
     borderopacity="0.25"
     inkscape:showpageshadow="2"
     inkscape:pageopacity="0.0"
     inkscape:pagecheckerboard="0"
     inkscape:deskcolor="#d1d1d1"
     inkscape:document-units="mm"
     inkscape:zoom="1"
     inkscape:cx="412"
     inkscape:cy="526.5"
     inkscape:window-width="1902"
     inkscape:window-height="1029"
     inkscape:window-x="0"
     inkscape:window-y="0"
     inkscape:window-maximized="1"
     inkscape:current-layer="svg1"
     inkscape:export-bgcolor="#292217ff" />
  <defs
     id="defs1">
    <style
       id="style1">
      .cls-1 {
        mix-blend-mode: difference;
      }

      .cls-2 {
        isolation: isolate;
      }

      .cls-3 {
        fill: url(#linear-gradient);
      }
    </style>
    <linearGradient
       id="linear-gradient"
       x1="8.93"
       y1="572.38"
       x2="572.68"
       y2="102.08"
       gradientUnits="userSpaceOnUse">
      <stop
         offset="0"
         stop-color="#00a2f8"
         id="stop1" />
      <stop
         offset="1"
         stop-color="#00e5cf"
         id="stop2" />
    </linearGradient>
  </defs>
  <path
     id="rect1"
     style="isolation:isolate;fill:#98971a;fill-opacity:1;stroke-width:0.856318"
     d="M 460.39756 239.04282 L 171.66249 239.04291 C 171.79654 242.78446 171.74509 246.54228 171.37787 250.31782 L 460.39746 250.31763 L 460.39756 239.04282 z M 157.14574 239.04307 L 111.10496 239.04278 C 110.33114 239.9416 109.6113 240.88417 108.99194 241.90389 C 107.25723 244.52787 105.81883 247.3601 104.93658 250.31782 L 157.34465 250.3178 C 157.44857 249.01824 157.51136 247.72061 157.52421 246.43402 C 157.47085 243.95972 157.32017 241.49957 157.14574 239.04307 z M 95.32926 239.04306 L -187.05149 239.04313 L -187.05158 250.31795 L 91.214424 250.31808 C 91.959906 246.41951 93.384787 242.61039 95.32926 239.04306 z "
     transform="matrix(0.88831342,-0.4592377,0.54189694,0.84044494,0,0)" />
  <path
     id="rect1-2"
     style="isolation:isolate;fill:#458588;fill-opacity:1;stroke-width:0.856318"
     d="M 460.39753 255.42417 L 170.6788 255.42416 C 169.99184 259.25055 168.89317 263.04508 167.36967 266.69918 L 460.39743 266.69898 L 460.39753 255.42417 z M 156.66823 255.42422 L 103.94232 255.42458 C 103.54562 259.31719 104.05981 263.2063 105.42701 266.69909 L 152.49816 266.69918 C 153.06132 265.74588 153.59975 264.78043 154.07522 263.81452 C 155.28754 261.11957 156.12157 258.29247 156.66823 255.42422 z M 90.512614 255.42415 L -187.05151 255.42448 L -187.05133 266.69884 L 91.159444 266.69891 C 90.388328 263.05324 90.198352 259.24208 90.512614 255.42415 z "
     transform="matrix(0.88831342,-0.4592377,0.54189694,0.84044494,0,0)" />
  <path
     id="rect1-5"
     style="isolation:isolate;fill:#cc241d;fill-opacity:1;stroke-width:0.856318"
     d="M 460.3973 222.66193 L 170.46731 222.66208 C 170.51145 223.1941 170.544 223.72785 170.59444 224.25889 C 170.86832 227.47432 171.16269 230.7005 171.38713 233.9366 L 460.39721 233.93675 L 460.3973 222.66193 z M 156.0789 222.66166 L 136.67314 222.66197 C 129.95826 225.755 123.03899 228.64971 117.10943 233.3319 C 116.87843 233.53152 116.64763 233.73627 116.41587 233.93671 L 156.76496 233.93696 C 156.48818 230.47697 156.21366 227.01566 156.09512 223.52765 C 156.10023 223.23862 156.08365 222.9503 156.0789 222.66166 z M 109.20604 222.6617 L -7.805218 222.66203 C -7.9300445 223.94206 -8.0602784 225.2219 -8.1885012 226.50213 C -10.868176 226.49073 -13.547866 226.47966 -16.22782 226.47115 C -16.100299 225.20134 -15.973886 223.93153 -15.846949 222.66171 L -19.847043 222.66183 C -20.425757 223.92295 -21.004445 225.1841 -21.583169 226.44521 C -24.411953 226.43418 -27.240528 226.42144 -30.069434 226.41166 C -29.495433 225.16142 -28.920496 223.91145 -28.345486 222.66159 L -187.05146 222.66178 L -187.05155 233.9366 L 98.493304 233.93646 C 101.47337 229.68732 105.16251 225.93882 109.20604 222.6617 z "
     transform="matrix(0.88831342,-0.4592377,0.54189694,0.84044494,0,0)" />
  <path
     class="cls-3"
     d="m 258.39032,94.977028 c 0.28317,0.300243 0.46388,0.445384 0.5891,0.628944 2.27246,3.362434 4.51076,6.750478 6.81736,10.090148 1.32762,1.92241 2.74061,3.78647 4.15787,5.64485 1.3703,1.80003 2.81744,3.5403 4.18916,5.34033 1.58659,2.08178 3.19453,4.15217 4.66871,6.31221 1.88825,2.76764 3.79074,5.54098 5.42429,8.45803 1.3888,2.4802 2.4987,5.12973 3.56022,7.775 0.75132,1.8726 1.25504,3.85051 1.79292,5.8028 0.24902,0.90499 0.31874,1.85979 0.46388,2.79183 0.17929,1.1412 0.4838,2.28241 0.5023,3.42646 0.0498,2.97966 0.30878,5.96928 -0.21059,8.93614 -0.57203,3.27136 -1.52968,6.40328 -2.95405,9.4242 -1.44003,3.05223 -3.18457,5.8711 -5.32042,8.47937 -1.93521,2.36352 -4.20766,4.31581 -6.6651,6.10588 -1.8043,1.31339 -3.71248,2.42898 -5.74303,3.31548 -1.82707,0.79685 -3.70963,1.43576 -5.64769,1.97648 -4.37558,1.21804 -8.81234,1.48556 -13.28041,1.17109 -2.69364,-0.18926 -5.41859,-0.51938 -7.98418,-1.48841 -2.10881,-0.79685 -4.23328,-1.58375 -6.2496,-2.57981 -1.59228,-0.78547 -3.11768,-1.77015 -4.51502,-2.86725 -1.83276,-1.4386 -3.63137,-2.96116 -5.21796,-4.65874 -1.42153,-1.51971 -2.65238,-3.25429 -3.75659,-5.02444 -1.16398,-1.86834 -2.18993,-3.84339 -3.07073,-5.86256 -0.95196,-2.17996 -1.56667,-4.47518 -2.06755,-6.8259 -0.77978,-3.6584 -0.52792,-7.31966 -0.36855,-10.96953 0.0911,-2.09601 0.6446,-4.19344 1.17536,-6.24106 0.55922,-2.16004 1.23512,-4.30585 2.05474,-6.38052 0.82105,-2.0775 1.77442,-4.12086 2.86583,-6.06888 1.3703,-2.44463 2.88147,-4.81669 4.4396,-7.14749 1.41442,-2.11735 2.94267,-4.16071 4.47803,-6.19268 1.23655,-1.63639 2.5855,-3.18883 3.8377,-4.81384 1.26643,-1.64351 2.48447,-3.32402 3.70964,-4.99883 1.2963,-1.773 2.60257,-3.53888 3.85477,-5.34318 1.58801,-2.28669 3.11769,-4.614633 4.69147,-6.911276 0.22483,-0.328701 0.55211,-0.589102 0.831,-0.880807 0.0555,0.03131 0.11099,0.06261 0.16791,0.09391 0.0114,0.251863 0.0327,0.503725 0.0327,0.755587 0.001,3.746631 0.0213,7.493266 -0.0242,11.239896 -0.007,0.54926 -0.23052,1.15971 -0.52934,1.6307 -1.20951,1.91387 -2.44605,3.81351 -3.75374,5.66192 -1.23939,1.75166 -2.57839,3.43359 -3.87328,5.1454 -1.06721,1.41014 -2.13015,2.82171 -3.20448,4.22616 -0.74563,0.97472 -1.52825,1.92099 -2.2568,2.90851 -1.01884,1.38311 -2.04194,2.76764 -2.99247,4.19771 -1.1469,1.72462 -2.2753,3.46631 -3.30552,5.26065 -0.73708,1.2835 -1.31765,2.6595 -1.93379,4.00845 -0.3415,0.74848 -0.65598,1.51402 -0.90499,2.29665 -0.44112,1.3888 -0.79401,2.80463 -1.23512,4.19343 -1.24082,3.90174 -0.97757,7.91588 -0.7001,11.88165 0.14088,2.01347 0.86943,4.0056 1.47987,5.96074 0.8552,2.73776 2.32226,5.16531 3.97715,7.50464 1.12982,1.59798 2.4119,3.04227 3.86189,4.32008 1.19386,1.05014 2.49017,2.01633 3.85193,2.83452 1.54959,0.93061 3.16322,1.81711 4.85511,2.42898 1.80572,0.65313 3.7139,1.13694 5.61781,1.37742 2.26676,0.28601 4.57621,0.22482 6.86574,0.33297 2.12589,0.0996 4.18775,-0.32586 6.25102,-0.7314 2.61966,-0.51511 5.01306,-1.64493 7.33959,-2.88291 2.78187,-1.47987 5.11978,-3.57587 7.1674,-5.93797 2.09316,-2.41475 3.85051,-5.12974 4.96895,-8.11083 1.17962,-3.14472 2.16288,-6.39901 2.01347,-9.85535 -0.0811,-1.86833 0.0214,-3.74805 -0.15083,-5.605 -0.12664,-1.36746 -0.51511,-2.71926 -0.87654,-4.05541 -0.42404,-1.56952 -0.85804,-3.14472 -1.44572,-4.65732 -0.58483,-1.50691 -1.33188,-2.95262 -2.06612,-4.39692 -0.65029,-1.27923 -1.32619,-2.54993 -2.08605,-3.76513 -0.92492,-1.47845 -1.90391,-2.92986 -2.94266,-4.33004 -1.57236,-2.1202 -3.23579,-4.17209 -4.82523,-6.27806 -1.86122,-2.46597 -3.71817,-4.93479 -5.51678,-7.4463 -1.55244,-2.16574 -3.03231,-4.38412 -4.51218,-6.60107 -0.23763,-0.35574 -0.42688,-0.82389 -0.43115,-1.24082 -0.0327,-4.05399 -0.0213,-8.107978 -0.0185,-12.161966 0,-0.13518 0.0342,-0.271783 0.0825,-0.63179 z"
     id="path2"
     style="isolation:isolate;mix-blend-mode:normal;fill:#68946a;fill-opacity:1;fill-rule:nonzero;stroke-width:0.142295" />
  <text
     xml:space="preserve"
     style="font-style:normal;font-variant:normal;font-weight:normal;font-stretch:normal;font-size:25.4px;font-family:'DejaVu Sans';-inkscape-font-specification:'DejaVu Sans';fill:#cc241d;fill-opacity:1;fill-rule:nonzero;stroke:#000000;stroke-width:0;stroke-dasharray:none;stroke-opacity:1"
     x="-23.72052"
     y="218.72324"
     id="text20"
     transform="rotate(-27.1)"><tspan
       sodipodi:role="line"
       id="tspan20"
       style="font-style:normal;font-variant:normal;font-weight:800;font-stretch:normal;font-size:25.4px;font-family:'JetBrains Mono';-inkscape-font-specification:'JetBrains Mono Ultra-Bold';stroke-width:0;stroke-dasharray:none;fill:#cc241d;fill-opacity:1"
       x="-23.72052"
       y="218.72324">hypr95</tspan></text>
</svg>
